<svg width="876" height="793" viewBox="0 0 876 793" fill="none" xmlns="http://www.w3.org/2000/svg">
<g clip-path="url(#clip0_537_8539)">
<rect width="876" height="793" fill="#FFFAFA"/>
<path d="M931.592 140.168C1034.67 899.4 1193.96 819.177 182.407 793.374C-193.987 783.773 129.085 604.723 129.085 372.011C129.085 139.298 -194.174 -10.0295 182.407 -10.0295C1044.79 -10.0294 967.719 -66.1649 931.592 140.168Z" fill="url(#paint0_linear_537_8539)"/>
<g clip-path="url(#clip1_537_8539)">
<path d="M211.184 407.467C240.739 441.672 278.159 454.97 296.615 496.546C309.258 525.048 303.329 558.777 312.681 588.575C325.485 629.421 367.581 656.851 409.531 657C451.482 657.149 491.466 632.847 516.374 598.328C524.531 587.011 531.61 574.279 543.059 566.476C559.446 555.293 580.712 556.737 600.333 554.95C648.722 550.542 694.576 522.77 721.596 481.491C721.596 481.491 791.688 396.938 742.076 275.976C727.656 240.818 704.277 208.533 672.028 189.368C639.793 170.203 583.684 169.757 550.488 187.12C515.194 205.585 491.728 246.074 453.04 254.965C430.623 260.117 407.463 253.416 384.885 249.038C353.204 242.888 320.925 239.076 288.938 243.23C251.299 248.1 213.325 267.399 195.773 310.777C189.626 325.966 187.558 342.645 190.005 358.891C192.204 373.47 197.754 391.935 211.184 407.467Z" fill="#F5F5FF"/>
<path d="M502.085 157.635C493.942 147.196 481.27 141.492 468.597 138.276C451.103 133.838 432.298 133.511 415.329 139.705C398.359 145.915 383.487 159.139 377.224 176.413C370.96 193.686 374.412 214.817 387.391 227.594C394.659 234.757 404.885 238.599 414.921 238.584C420.878 239.239 426.967 238.554 432.561 236.35C445.015 231.451 454.162 220.312 466.121 214.222C479.099 207.61 495.792 206.553 504.576 194.744C512.485 184.111 510.227 168.088 502.085 157.635Z" fill="#F5F5FF"/>
<path d="M268.065 527.729C266.71 524.884 265.443 522.01 264.627 518.973C261.991 509.234 263.899 498.125 258.786 489.473C252.362 478.617 236.544 476.637 225.779 482.951C215.015 489.279 208.853 501.639 206.232 514.044C204.615 521.683 204.149 529.813 206.698 537.185C209.669 545.747 216.442 552.404 223.827 557.467C232.043 563.096 241.627 567.22 251.503 566.878C255.902 566.729 260.33 565.538 264.248 563.438C267.336 562.068 270.075 559.953 271.954 557.199C273.323 555.546 274.474 553.699 275.319 551.674C278.844 543.26 275.683 532.151 268.065 527.729Z" fill="#F5F5FF"/>
<path d="M657.301 527.014H348.878C345.979 527.014 343.619 524.586 343.619 521.638V319.325C343.619 316.361 345.993 313.949 348.878 313.949H657.301C660.2 313.949 662.559 316.376 662.559 319.325V521.638C662.574 524.586 660.2 527.014 657.301 527.014Z" fill="#4E3D5F"/>
<path d="M654.679 329.436H351.514V506.359H654.679V329.436Z" fill="#D5CBFB"/>
<path d="M504.997 321.052C504.997 322.124 504.138 323.003 503.089 323.003C502.041 323.003 501.181 322.124 501.181 321.052C501.181 319.98 502.041 319.101 503.089 319.101C504.138 319.101 504.997 319.98 504.997 321.052Z" fill="#D5CBFB"/>
<path d="M705.5 596.541L666.318 532.792C664.103 529.188 660.243 527.014 656.092 527.014H496.258H487.416H350.101C345.95 527.014 342.075 529.203 339.876 532.792L300.693 596.541C299.586 598.343 299.193 600.487 299.542 602.557H706.651C707.001 600.487 706.607 598.343 705.5 596.541Z" fill="#D5CBFB"/>
<path d="M299.542 602.557C299.615 602.989 299.702 603.406 299.848 603.823L300.46 605.714C301.61 609.229 304.815 611.596 308.427 611.596H487.416H496.258H697.751C701.363 611.596 704.583 609.229 705.733 605.714L706.345 603.823C706.476 603.406 706.578 602.974 706.651 602.557H299.542Z" fill="#4E3D5F"/>
<path d="M364.842 558.464L366.75 554.175H357.311L355.287 558.464H364.842Z" fill="#4E3D5F"/>
<path d="M381.477 546.253L382.409 544.02L383.268 541.965H374.135L372.227 546.253H381.477Z" fill="#4E3D5F"/>
<path d="M368.702 554.175L366.794 558.464H376.364L378.156 554.175H368.702Z" fill="#4E3D5F"/>
<path d="M367.551 552.359L369.46 548.07H360.181L358.171 552.359H367.551Z" fill="#4E3D5F"/>
<path d="M559.766 541.965L560.815 546.253H568.943L567.763 541.965H559.766Z" fill="#4E3D5F"/>
<path d="M414.105 554.175L412.823 558.464H422.481L423.704 554.175H414.105Z" fill="#4E3D5F"/>
<path d="M402.816 554.175L401.316 558.464H410.973L412.255 554.175H402.816Z" fill="#4E3D5F"/>
<path d="M391.484 554.175L389.809 558.464H399.422L400.937 554.175H391.484Z" fill="#4E3D5F"/>
<path d="M380.093 554.175L378.301 558.464H387.886L389.575 554.175H380.093Z" fill="#4E3D5F"/>
<path d="M569.613 541.965L570.778 546.253H578.367L577.144 541.965H569.613Z" fill="#4E3D5F"/>
<path d="M446.747 548.07L445.699 552.359H453.331L454.278 548.07H446.747Z" fill="#4E3D5F"/>
<path d="M529.556 541.965L530.27 546.253H539.082L538.252 541.965H529.556Z" fill="#4E3D5F"/>
<path d="M445.364 546.253L446.427 541.965H438.416L437.25 546.253H445.364Z" fill="#4E3D5F"/>
<path d="M435.401 546.253L436.566 541.965H429.05L427.826 546.253H435.401Z" fill="#4E3D5F"/>
<path d="M454.672 546.253L455.618 541.965H448.248L447.199 546.253H454.672Z" fill="#4E3D5F"/>
<path d="M578.994 541.965L580.217 546.253H589.7L588.418 541.965H578.994Z" fill="#4E3D5F"/>
<path d="M407.128 541.965L405.613 546.253H414.629L415.285 544.034L415.911 541.965H407.128Z" fill="#4E3D5F"/>
<path d="M403.719 546.253L405.234 541.965H396.262L394.586 546.253H403.719Z" fill="#4E3D5F"/>
<path d="M385.206 541.965L383.399 546.253H392.678L393.552 544.02L394.353 541.965H385.206Z" fill="#4E3D5F"/>
<path d="M550.575 541.965L551.522 546.253H558.994L557.931 541.965H550.575Z" fill="#4E3D5F"/>
<path d="M540.073 541.965L540.888 546.253H549.701L548.754 541.965H540.073Z" fill="#4E3D5F"/>
<path d="M425.976 546.253L427.2 541.965H417.761L416.479 546.253H425.976Z" fill="#4E3D5F"/>
<path d="M437.061 540.148L438.154 536.157H430.71L429.56 540.148H437.061Z" fill="#4E3D5F"/>
<path d="M427.71 540.148L428.86 536.157H419.494L418.3 540.148H427.71Z" fill="#4E3D5F"/>
<path d="M519.185 541.965L519.68 546.253H528.478L527.765 541.965H519.185Z" fill="#4E3D5F"/>
<path d="M466.47 540.148L467.242 536.157H458.706L457.833 540.148H466.47Z" fill="#4E3D5F"/>
<path d="M456.011 540.148L456.885 536.157H449.69L448.699 540.148H456.011Z" fill="#4E3D5F"/>
<path d="M446.864 540.148L447.855 536.157H440.004L438.911 540.148H446.864Z" fill="#4E3D5F"/>
<path d="M622.925 541.965L624.716 546.253H633.966L632.058 541.965H622.925Z" fill="#4E3D5F"/>
<path d="M384.026 540.148L385.701 536.157H376.714L374.937 540.148H384.026Z" fill="#4E3D5F"/>
<path d="M395.067 540.148L396.625 536.157H387.623L385.963 540.148H395.067Z" fill="#4E3D5F"/>
<path d="M416.45 540.148L417.644 536.157H409.167L407.754 540.148H416.45Z" fill="#4E3D5F"/>
<path d="M634.01 541.965L635.918 546.253H645.138L643.128 541.965H634.01Z" fill="#4E3D5F"/>
<path d="M405.875 540.148L407.273 536.157H398.548L396.975 540.148H405.875Z" fill="#4E3D5F"/>
<path d="M590.282 541.965L591.564 546.253H600.58L599.066 541.965H590.282Z" fill="#4E3D5F"/>
<path d="M465.567 554.175L464.737 558.464H473.87L474.584 554.175H465.567Z" fill="#4E3D5F"/>
<path d="M425.554 554.175L424.33 558.464H432.079L433.245 554.175H425.554Z" fill="#4E3D5F"/>
<path d="M454.744 554.175L453.812 558.464H462.93L463.761 554.175H454.744Z" fill="#4E3D5F"/>
<path d="M435.095 554.175L433.915 558.464H442.363L443.412 554.175H435.095Z" fill="#4E3D5F"/>
<path d="M445.247 554.175L444.199 558.464H451.992L452.924 554.175H445.247Z" fill="#4E3D5F"/>
<path d="M478.429 541.965L477.715 546.253H486.513L486.994 541.965H478.429Z" fill="#4E3D5F"/>
<path d="M476.929 540.148L477.599 536.157H469.048L468.276 540.148H476.929Z" fill="#4E3D5F"/>
<path d="M466.747 548.07L465.917 552.359H474.889L475.603 548.07H466.747Z" fill="#4E3D5F"/>
<path d="M611.84 541.965L613.515 546.253H622.779L620.988 541.965H611.84Z" fill="#4E3D5F"/>
<path d="M485.814 552.359L486.295 548.07H477.41L476.696 552.359H485.814Z" fill="#4E3D5F"/>
<path d="M600.959 541.965L602.46 546.253H611.593L609.918 541.965H600.959Z" fill="#4E3D5F"/>
<path d="M370.275 546.253L372.184 541.965H363.065L361.041 546.253H370.275Z" fill="#4E3D5F"/>
<path d="M572.264 558.464L571.099 554.175H562.767L563.83 558.464H572.264Z" fill="#4E3D5F"/>
<path d="M436.755 548.07L435.59 552.359H443.863L444.912 548.07H436.755Z" fill="#4E3D5F"/>
<path d="M587.879 540.148L586.684 536.157H577.333L578.469 540.148H587.879Z" fill="#4E3D5F"/>
<path d="M609.204 540.148L607.645 536.157H598.905L600.318 540.148H609.204Z" fill="#4E3D5F"/>
<path d="M598.425 540.148L597.026 536.157H588.549L589.743 540.148H598.425Z" fill="#4E3D5F"/>
<path d="M548.346 540.148L547.472 536.157H538.951L539.709 540.148H548.346Z" fill="#4E3D5F"/>
<path d="M537.902 540.148L537.13 536.157H528.595L529.265 540.148H537.902Z" fill="#4E3D5F"/>
<path d="M620.23 540.148L618.555 536.157H609.553L611.126 540.148H620.23Z" fill="#4E3D5F"/>
<path d="M567.268 540.148L566.19 536.157H558.339L559.315 540.148H567.268Z" fill="#4E3D5F"/>
<path d="M557.48 540.148L556.504 536.157H549.293L550.167 540.148H557.48Z" fill="#4E3D5F"/>
<path d="M561.995 558.464L560.932 554.175H553.255L554.202 558.464H561.995Z" fill="#4E3D5F"/>
<path d="M627.892 558.464L626.101 554.175H616.618L618.293 558.464H627.892Z" fill="#4E3D5F"/>
<path d="M604.878 558.464L603.363 554.175H593.938L595.22 558.464H604.878Z" fill="#4E3D5F"/>
<path d="M650.892 558.464L648.882 554.175H639.443L641.351 558.464H650.892Z" fill="#4E3D5F"/>
<path d="M639.399 558.464L637.491 554.175H628.023L629.815 558.464H639.399Z" fill="#4E3D5F"/>
<path d="M616.385 558.464L614.71 554.175H605.256L606.757 558.464H616.385Z" fill="#4E3D5F"/>
<path d="M552.381 558.464L551.435 554.175H542.433L543.248 558.464H552.381Z" fill="#4E3D5F"/>
<path d="M631.242 540.148L629.465 536.157H620.493L622.153 540.148H631.242Z" fill="#4E3D5F"/>
<path d="M647.119 546.253H655.641L653.266 541.965H645.095L647.119 546.253Z" fill="#4E3D5F"/>
<path d="M581.863 558.464L580.625 554.175H572.949L574.114 558.464H581.863Z" fill="#4E3D5F"/>
<path d="M642.269 540.148L640.39 536.157H631.417L633.194 540.148H642.269Z" fill="#4E3D5F"/>
<path d="M593.356 558.464L592.074 554.175H582.475L583.713 558.464H593.356Z" fill="#4E3D5F"/>
<path d="M652.261 540.148L650.047 536.157H642.356L644.235 540.148H652.261Z" fill="#4E3D5F"/>
<path d="M576.619 540.148L575.483 536.157H568.025L569.118 540.148H576.619Z" fill="#4E3D5F"/>
<path d="M519.272 558.464L518.792 554.175H509.586L509.746 558.464H519.272Z" fill="#4E3D5F"/>
<path d="M382.642 548.07L381.71 550.304L380.851 552.359H390.275L391.965 548.07H382.642Z" fill="#4E3D5F"/>
<path d="M529.498 552.359L528.784 548.07H519.884L520.38 552.359H529.498Z" fill="#4E3D5F"/>
<path d="M378.913 552.359L380.719 548.07H371.412L370.421 550.319L369.503 552.359H378.913Z" fill="#4E3D5F"/>
<path d="M457.439 541.965L456.492 546.253H465.29L466.12 541.965H457.439Z" fill="#4E3D5F"/>
<path d="M467.927 541.965L467.097 546.253H475.909L476.623 541.965H467.927Z" fill="#4E3D5F"/>
<path d="M415.94 548.07L414.658 552.359H424.228L425.452 548.07H415.94Z" fill="#4E3D5F"/>
<path d="M393.872 548.07L392.197 552.359H401.578L403.078 548.07H393.872Z" fill="#4E3D5F"/>
<path d="M427.302 548.07L426.078 552.359H433.74L434.905 548.07H427.302Z" fill="#4E3D5F"/>
<path d="M509.338 548.07L509.513 552.359H518.588L518.093 548.07H509.338Z" fill="#4E3D5F"/>
<path d="M404.972 548.07L403.457 552.359H412.794L414.076 548.07H404.972Z" fill="#4E3D5F"/>
<path d="M517.189 540.148L516.738 536.157H508.872L509.032 540.148H517.189Z" fill="#4E3D5F"/>
<path d="M541.442 558.464L540.612 554.175H531.595L532.309 558.464H541.442Z" fill="#4E3D5F"/>
<path d="M499.084 536.157L498.938 540.148H507.255L507.095 536.157H499.084Z" fill="#4E3D5F"/>
<path d="M498.865 541.965L498.69 546.253H507.488L507.328 541.965H498.865Z" fill="#4E3D5F"/>
<path d="M517.889 546.253L517.408 541.965H509.105L509.266 546.253H517.889Z" fill="#4E3D5F"/>
<path d="M527.458 540.148L526.788 536.157H518.529L518.981 540.148H527.458Z" fill="#4E3D5F"/>
<path d="M498.618 548.07L498.458 552.359H507.736L507.561 548.07H498.618Z" fill="#4E3D5F"/>
<path d="M498.385 554.175L498.21 558.464H507.969L507.809 554.175H498.385Z" fill="#4E3D5F"/>
<path d="M497.161 540.148L497.307 536.157H489.441L488.989 540.148H497.161Z" fill="#4E3D5F"/>
<path d="M478.735 540.148H487.198L487.664 536.157H479.39L478.735 540.148Z" fill="#4E3D5F"/>
<path d="M540.262 552.359L539.432 548.07H530.576L531.289 552.359H540.262Z" fill="#4E3D5F"/>
<path d="M456.099 548.07L455.152 552.359H464.111L464.941 548.07H456.099Z" fill="#4E3D5F"/>
<path d="M342.789 560.281L340.721 564.033H350.699L352.461 560.281H342.789Z" fill="#4E3D5F"/>
<path d="M580.115 552.359L578.892 548.07H571.273L572.453 552.359H580.115Z" fill="#4E3D5F"/>
<path d="M574.609 560.281L575.629 564.033H583.451L582.373 560.281H574.609Z" fill="#4E3D5F"/>
<path d="M560.494 552.359L559.431 548.07H551.915L552.862 552.359H560.494Z" fill="#4E3D5F"/>
<path d="M496.432 558.464L496.607 554.175H487.387L486.906 558.464H496.432Z" fill="#4E3D5F"/>
<path d="M607.397 560.281L608.723 564.033H618.57L617.099 560.281H607.397Z" fill="#4E3D5F"/>
<path d="M636.675 552.359L634.767 548.07H625.474L627.266 552.359H636.675Z" fill="#4E3D5F"/>
<path d="M619.007 560.281L620.478 564.033H630.223L628.65 560.281H619.007Z" fill="#4E3D5F"/>
<path d="M476.39 554.175L475.676 558.464H485.115L485.61 554.175H476.39Z" fill="#4E3D5F"/>
<path d="M346.168 554.175L343.794 558.464H353.32L355.33 554.175H346.168Z" fill="#4E3D5F"/>
<path d="M521.268 560.281L521.705 564.033H531.435L530.809 560.281H521.268Z" fill="#4E3D5F"/>
<path d="M377.544 560.281L375.971 564.033H385.701L387.172 560.281H377.544Z" fill="#4E3D5F"/>
<path d="M496.36 560.281H486.703L486.266 564.033H496.214L496.36 560.281Z" fill="#4E3D5F"/>
<path d="M625.328 552.359L623.537 548.07H614.229L615.904 552.359H625.328Z" fill="#4E3D5F"/>
<path d="M354.428 560.281L352.665 564.033H362.366L364.041 560.281H354.428Z" fill="#4E3D5F"/>
<path d="M541.253 548.07L542.083 552.359H551.041L550.095 548.07H541.253Z" fill="#4E3D5F"/>
<path d="M584.223 560.281L585.301 564.033H595.031L593.895 560.281H584.223Z" fill="#4E3D5F"/>
<path d="M543.612 560.281L544.326 564.033H553.605L552.774 560.281H543.612Z" fill="#4E3D5F"/>
<path d="M591.535 552.359L590.253 548.07H580.742L581.965 552.359H591.535Z" fill="#4E3D5F"/>
<path d="M602.722 552.359L601.221 548.07H592.103L593.385 552.359H602.722Z" fill="#4E3D5F"/>
<path d="M532.615 560.281L533.241 564.033H542.52L541.791 560.281H532.615Z" fill="#4E3D5F"/>
<path d="M595.759 560.281L596.881 564.033H606.83L605.519 560.281H595.759Z" fill="#4E3D5F"/>
<path d="M352.927 541.965L350.553 546.253H359.074L361.084 541.965H352.927Z" fill="#4E3D5F"/>
<path d="M642.152 560.281L643.827 564.033H653.528L651.751 560.281H642.152Z" fill="#4E3D5F"/>
<path d="M356.132 536.157L353.932 540.148H361.944L363.823 536.157H356.132Z" fill="#4E3D5F"/>
<path d="M613.996 552.359L612.306 548.07H603.101L604.615 552.359H613.996Z" fill="#4E3D5F"/>
<path d="M472.937 564.033L473.564 560.281H389.095L387.624 564.033H472.937Z" fill="#4E3D5F"/>
<path d="M554.595 560.281L555.425 564.033H563.364L562.446 560.281H554.595Z" fill="#4E3D5F"/>
<path d="M488.29 546.253H496.913L497.088 541.965H488.785L488.29 546.253Z" fill="#4E3D5F"/>
<path d="M660.01 554.175H650.848L655.495 564.033H665.473L660.01 554.175Z" fill="#4E3D5F"/>
<path d="M649.989 552.359H659.006L656.631 548.07H647.979L649.989 552.359Z" fill="#4E3D5F"/>
<path d="M648.023 552.359L645.998 548.07H636.719L638.627 552.359H648.023Z" fill="#4E3D5F"/>
<path d="M484.488 564.033L484.911 560.281H475.37L474.744 564.033H484.488Z" fill="#4E3D5F"/>
<path d="M498.137 560.281L497.991 564.033H519.913L519.491 560.281H498.137Z" fill="#4E3D5F"/>
<path d="M630.587 560.281L632.146 564.033H641.876L640.201 560.281H630.587Z" fill="#4E3D5F"/>
<path d="M570.604 552.359L569.438 548.07H561.267L562.33 552.359H570.604Z" fill="#4E3D5F"/>
<path d="M564.267 560.281L565.199 564.033H573.779L572.759 560.281H564.267Z" fill="#4E3D5F"/>
<path d="M349.548 548.07L347.173 552.359H356.19L358.214 548.07H349.548Z" fill="#4E3D5F"/>
<path d="M372.984 540.148L374.762 536.157H365.803L363.924 540.148H372.984Z" fill="#4E3D5F"/>
<path d="M365.978 560.281L364.318 564.033H374.033L375.607 560.281H365.978Z" fill="#4E3D5F"/>
<path d="M496.666 552.359L496.84 548.07H488.086L487.605 552.359H496.666Z" fill="#4E3D5F"/>
<path d="M529.804 554.175H520.583L521.064 558.464H530.518L529.804 554.175Z" fill="#4E3D5F"/>
<path d="M558.747 596.02H447.432C446.952 596.02 446.529 595.797 446.238 595.41C445.961 595.022 445.874 594.531 446.019 594.069L453.099 570.556C453.288 569.916 453.856 569.499 454.511 569.499H551.668C552.323 569.499 552.891 569.93 553.08 570.556L560.16 594.069C560.305 594.531 560.218 595.022 559.941 595.41C559.65 595.797 559.213 596.02 558.747 596.02ZM454.511 570.839C454.439 570.839 454.38 570.884 454.351 570.958L447.272 594.471C447.258 594.531 447.272 594.591 447.301 594.62C447.33 594.65 447.359 594.68 447.432 594.68H558.747C558.82 594.68 558.849 594.65 558.878 594.62C558.892 594.591 558.921 594.546 558.907 594.471L551.828 570.958C551.813 570.898 551.74 570.839 551.682 570.839H454.511Z" fill="#4E3D5F"/>
<path d="M472.209 486.673C475.093 494.625 468.888 504.305 458.357 508.31C447.811 512.316 441.81 507.268 437.586 499.956C431.424 489.279 437.367 483.516 447.898 479.51C458.43 475.52 469.311 478.721 472.209 486.673Z" fill="#FFF6DC"/>
<path d="M366.969 399.112C366.969 399.112 393.115 426.646 414.557 476.071C414.557 476.071 424.724 502.905 431.395 509.606C431.395 509.606 425.991 503.396 434.235 493.464C440.295 486.167 449.122 481.7 458.459 481.372C463.688 481.178 469.136 482.295 472.238 486.792C472.238 486.792 437.353 444.784 414.571 408.539C405.467 394.064 401.156 382.092 399.262 372.948C399.262 372.948 397.543 370.879 394.12 369.151C381.535 362.793 366.721 371.355 364.522 385.517C364.318 386.842 364.187 388.242 364.158 389.746C364.158 389.746 363.983 396.03 366.969 399.112Z" fill="white"/>
<path d="M431.38 509.606C431.38 509.606 442.829 523.723 468.757 506.776C468.757 506.776 484.809 495.831 476.798 476.77C476.798 476.77 460.163 464.083 447.039 448.015C433.915 431.948 417.688 410.057 404.229 381.109L400.792 378.979C400.792 378.979 403.268 392.709 419.291 415.835C435.313 438.961 464.883 477.694 464.883 477.694L469.398 483.263C471.991 486.465 472.879 490.858 471.452 494.744C469.413 500.284 463.411 506.836 446.689 507.834L436.245 491.26C436.231 491.26 426.093 499.852 431.38 509.606Z" fill="#F4E7BD"/>
<path d="M456.697 458.767C456.697 458.767 426.647 426.736 405.584 376.031C405.584 376.031 401.782 369.851 399.364 367.007C399.379 367.021 417.688 424.874 456.697 458.767Z" fill="white"/>
<path d="M401.447 449.475C407.769 437.815 421.432 430.116 434.425 430.771C439.057 431.009 439.042 425.127 434.425 424.889C418.999 424.1 403.719 431.962 396.232 445.752C396.232 445.767 399.189 453.614 401.447 449.475Z" fill="#F0C64B"/>
<path d="M354.894 470.903H295.93C288.108 470.903 281.713 464.366 281.713 456.369V424.978C281.713 416.982 288.108 410.445 295.93 410.445H354.894C362.716 410.445 369.11 416.982 369.11 424.978V456.369C369.11 464.366 362.716 470.903 354.894 470.903Z" fill="#E32944"/>
<path d="M316.031 440.674V429.595L325.412 435.134L334.792 440.674L325.412 446.213L316.031 451.738V440.674Z" fill="#D5CBFB"/>
<path d="M308.34 337.566C308.34 319.101 293.701 304.15 275.654 304.15C257.592 304.15 242.967 319.116 242.967 337.566C242.967 350.939 250.658 362.48 261.758 367.826V378.488H289.55V367.826C300.649 362.48 308.34 350.939 308.34 337.566Z" fill="white"/>
<path d="M290.438 383.983H260.854C259.369 383.983 258.16 382.747 258.16 381.228C258.16 379.709 259.369 378.473 260.854 378.473H290.438C291.924 378.473 293.133 379.709 293.133 381.228C293.133 382.747 291.924 383.983 290.438 383.983Z" fill="#F0C64B"/>
<path d="M275.639 399.619C269.667 399.619 264.831 394.675 264.831 388.569V386.738H286.447V388.569C286.447 394.675 281.611 399.619 275.639 399.619Z" fill="#F0C64B"/>
<path d="M290.438 389.493H260.854C259.369 389.493 258.16 388.257 258.16 386.738C258.16 385.219 259.369 383.983 260.854 383.983H290.438C291.924 383.983 293.133 385.219 293.133 386.738C293.133 388.257 291.924 389.493 290.438 389.493Z" fill="#D8A32B"/>
<path d="M278.625 378.473H277.096V332.042C277.096 331.223 276.455 330.568 275.654 330.568C274.852 330.568 274.212 331.223 274.212 332.042V378.473H272.682V332.042C272.682 330.359 274.022 329.004 275.654 329.004C277.285 329.004 278.625 330.374 278.625 332.042V378.473Z" fill="#F0C64B"/>
<path d="M224.264 326.175L223.361 330.955L237.024 333.635C237.214 331.997 237.49 330.404 237.855 328.84L224.264 326.175Z" fill="#7B70EE"/>
<path d="M235.087 304.135L232.203 308.022L243.099 316.451C243.973 315.081 244.919 313.785 245.954 312.549L235.087 304.135Z" fill="#7B70EE"/>
<path d="M254.183 289.259L249.93 291.448L256.063 303.867C257.432 303.048 258.845 302.319 260.316 301.664L254.183 289.259Z" fill="#7B70EE"/>
<path d="M327.932 330.955L327.029 326.175L313.424 328.84C313.788 330.404 314.079 332.012 314.254 333.635L327.932 330.955Z" fill="#7B70EE"/>
<path d="M319.09 308.022L316.206 304.135L305.339 312.549C306.359 313.785 307.32 315.095 308.194 316.451L319.09 308.022Z" fill="#7B70EE"/>
<path d="M301.363 291.448L297.109 289.259L290.992 301.664C292.463 302.304 293.876 303.048 295.245 303.867L301.363 291.448Z" fill="#7B70EE"/>
<path d="M278.086 298.536L277.97 284.405L273.207 284.449L273.323 298.536C274.095 298.492 274.867 298.462 275.654 298.462C276.469 298.447 277.27 298.492 278.086 298.536Z" fill="#7B70EE"/>
<path d="M758.55 592.833H620.391V620.68H758.55V592.833Z" fill="#F0C64B"/>
<path d="M633.733 592.833H628.169V620.68H633.733V592.833Z" fill="#DB495E"/>
<path d="M642.094 592.833H636.53V620.68H642.094V592.833Z" fill="#DB495E"/>
<path d="M742.426 592.833H736.861V620.68H742.426V592.833Z" fill="#DB495E"/>
<path d="M750.772 592.833H745.208V620.68H750.772V592.833Z" fill="#DB495E"/>
<path d="M771.85 577.317V573.028C771.85 566.937 766.999 561.979 761.042 561.979H637.899V588.351H761.042C766.999 588.351 771.85 583.392 771.85 577.317Z" fill="white"/>
<path d="M761.041 557.347H637.098V559.67V561.993H761.041C766.999 561.993 771.849 566.952 771.849 573.043V577.332C771.849 583.422 766.999 588.381 761.041 588.381H637.098V590.674V592.997H761.041C769.504 592.997 776.38 585.968 776.38 577.317V573.028C776.394 564.376 769.504 557.347 761.041 557.347Z" fill="#25AD3B"/>
<path d="M763.46 567.89H637.914V570.005H763.46V567.89Z" fill="#F5F5FF"/>
<path d="M763.46 574.234H637.914V576.349H763.46V574.234Z" fill="#F5F5FF"/>
<path d="M763.46 580.593H637.914V582.707H763.46V580.593Z" fill="#F5F5FF"/>
<path d="M627.354 543.379V539.522C627.354 534.042 631.723 529.575 637.084 529.575H747.961V553.312H637.084C631.723 553.327 627.354 548.874 627.354 543.379Z" fill="white"/>
<path d="M637.084 525.406H748.689V527.49V529.575H637.084C631.723 529.575 627.353 534.042 627.353 539.522V543.379C627.353 548.859 631.723 553.327 637.084 553.327H748.689V555.411V557.496H637.084C629.465 557.496 623.275 551.167 623.275 543.379V539.522C623.275 531.734 629.465 525.406 637.084 525.406Z" fill="#DB495E"/>
<path d="M634.908 536.794H747.956V534.888H634.908V536.794Z" fill="#F5F5FF"/>
<path d="M634.908 542.522H747.956V540.616H634.908V542.522Z" fill="#F5F5FF"/>
<path d="M634.908 548.25H747.956V546.344H634.908V548.25Z" fill="#F5F5FF"/>
<path d="M404.579 229.307C409.793 229.307 414.032 233.506 414.032 238.673V240.103C415.926 245.568 417.091 252.686 417.091 260.489C417.091 268.292 415.94 275.41 414.032 280.875V282.305C414.032 287.472 409.808 291.671 404.579 291.671C397.674 291.671 392.066 277.718 392.066 260.504C392.066 243.275 397.674 229.307 404.579 229.307Z" fill="#F0C64B"/>
<path d="M396.32 260.876C396.32 271.404 397.121 279.952 398.097 279.952C399.087 279.952 399.874 271.419 399.874 260.876C399.874 250.348 399.073 241.8 398.097 241.8C397.121 241.815 396.32 250.348 396.32 260.876Z" fill="#D8A32B"/>
<path d="M427.258 246.357V247.608V274.159V275.41C426.617 282.603 420.15 289.259 411.483 291.657V274.159V247.608V230.111C420.15 232.508 426.617 239.18 427.258 246.357Z" fill="#7B70EE"/>
<path d="M411.483 294.992C412.896 294.992 414.047 293.846 414.047 292.446V229.307C414.047 227.907 412.896 226.76 411.483 226.76C410.07 226.76 408.919 227.907 408.919 229.307V292.446C408.919 293.846 410.07 294.992 411.483 294.992Z" fill="#2525AD"/>
<path d="M355.491 229.307C350.276 229.307 346.037 233.506 346.037 238.673V240.103C344.144 245.568 342.979 252.686 342.979 260.489C342.979 268.292 344.129 275.41 346.037 280.875V282.305C346.037 287.472 350.262 291.671 355.491 291.671C362.395 291.671 368.003 277.718 368.003 260.504C368.003 243.275 362.395 229.307 355.491 229.307Z" fill="#F0C64B"/>
<path d="M363.75 260.876C363.75 271.404 362.949 279.952 361.973 279.952C360.982 279.952 360.196 271.419 360.196 260.876C360.196 250.348 360.997 241.8 361.973 241.8C362.949 241.815 363.75 250.348 363.75 260.876Z" fill="#D8A32B"/>
<path d="M332.812 246.357V247.608V274.159V275.41C333.452 282.603 339.92 289.259 348.587 291.657V274.159V247.608V230.111C339.92 232.508 333.452 239.18 332.812 246.357Z" fill="#7B70EE"/>
<path d="M348.587 294.992C347.174 294.992 346.023 293.846 346.023 292.446V229.307C346.023 227.907 347.174 226.76 348.587 226.76C349.999 226.76 351.15 227.907 351.15 229.307V292.446C351.15 293.846 349.999 294.992 348.587 294.992Z" fill="#2525AD"/>
<path d="M411.716 190.887C406.589 186.554 399.874 183.829 393.494 182.22C386.954 180.582 380.108 180.15 373.422 180.955C371.397 181.193 369.387 181.52 367.406 181.952C366.051 182.25 364.551 182.473 363.284 183.084C361.958 183.724 360.676 184.424 359.365 185.109C355.826 186.926 352.301 188.758 348.761 190.574C347.348 191.304 347.523 193.404 348.761 194.178C352.024 196.203 355.768 196.456 359.467 195.861C362.075 195.444 364.449 194.446 366.911 193.568C371.339 192.004 376.146 191.23 380.821 191.2C385.002 191.185 389.226 191.825 393.086 193.508C398.796 196.025 405.628 197.692 411.294 194.163C412.343 193.523 412.765 191.766 411.716 190.887Z" fill="#7B70EE"/>
<path d="M380.924 178.632L380.938 178.587C380.632 178.587 380.341 178.602 380.05 178.617C379.758 178.617 379.452 178.587 379.161 178.587L379.176 178.632C349.752 179.585 326.169 204.259 326.169 234.578V268.575C326.169 272.343 329.155 275.41 332.855 275.41V241.905L332.71 241.041C330.452 227.46 333.336 213.313 341.449 202.309C345.237 197.171 350.364 192.332 357.312 188.832C357.399 188.787 357.472 188.743 357.559 188.713C371.703 181.654 388.411 181.654 402.554 188.713C402.642 188.758 402.714 188.802 402.802 188.832C409.794 192.346 414.935 197.231 418.737 202.398C426.792 213.388 429.647 227.505 427.404 241.041L427.258 241.905V275.41C430.944 275.41 433.944 272.357 433.944 268.575V234.593C433.915 204.274 410.347 179.599 380.924 178.632Z" fill="#2A2AA4"/>
<path d="M759.984 279.661H673.068V408.158H759.984V279.661Z" fill="#D5CBFB"/>
<path d="M750.603 298.513H682.448V301.357H750.603V298.513Z" fill="#4E3D5F"/>
<path d="M750.603 311.558H682.448V314.402H750.603V311.558Z" fill="#4E3D5F"/>
<path d="M750.603 324.618H682.448V327.462H750.603V324.618Z" fill="#4E3D5F"/>
<path d="M750.603 337.677H682.448V340.522H750.603V337.677Z" fill="#4E3D5F"/>
<path d="M750.603 350.737H682.448V353.581H750.603V350.737Z" fill="#4E3D5F"/>
<path d="M750.603 363.782H682.448V366.626H750.603V363.782Z" fill="#4E3D5F"/>
<path d="M750.603 395.5H682.448V396.289H750.603V395.5Z" fill="white"/>
<path d="M691.771 383.155C695.252 383.751 698.792 383.93 702.302 383.617C705.55 383.334 709.002 382.768 712.032 381.488C714.188 380.579 716.548 378.077 715.033 375.561C713.693 373.342 710.357 373.119 708.128 373.655C705.536 374.28 703.234 376.022 701.661 378.182C700.088 380.341 698.995 383.468 700.86 385.806C702.579 387.965 705.74 388.397 708.274 388.04C709.702 387.831 711.085 387.355 712.338 386.61C712.921 386.268 713.46 385.851 713.984 385.419C714.654 384.853 715.368 384.094 716.285 383.96C717.378 383.811 717.64 384.644 718.325 385.27C718.805 385.702 719.432 385.836 720.058 385.776C720.83 385.702 721.529 385.359 722.243 385.076C723.146 384.719 724.035 384.585 724.996 384.615C729.147 384.719 733.313 385.285 737.45 385.627C738.193 385.687 738.178 384.987 737.45 384.927C734.377 384.674 731.303 383.945 728.215 383.691C726.817 383.572 725.36 383.349 723.962 383.468C722.636 383.572 721.573 384.287 720.306 384.555C718.878 384.868 718.689 383.394 717.538 382.947C716.519 382.545 715.412 382.887 714.538 383.483C713.474 384.198 712.615 385.151 711.493 385.776C710.226 386.476 708.798 386.893 707.356 386.982C705.026 387.131 701.559 386.402 701.064 383.587C700.612 381.011 702.71 378.36 704.516 376.841C706.381 375.278 708.9 374.25 711.333 374.712C712.498 374.935 713.999 375.486 714.29 376.812C714.625 378.36 713.285 379.611 712.061 380.222C710.648 380.937 709.002 381.294 707.458 381.651C705.754 382.039 704.021 382.321 702.287 382.47C698.879 382.768 695.441 382.947 692.062 382.366C691.348 382.217 691.042 383.036 691.771 383.155Z" fill="#4E3D5F"/>
<path d="M779.697 360.443L764.417 351.97L768.903 343.512C769.879 341.68 772.122 340.995 773.914 341.993L782.712 346.862C784.504 347.86 785.174 350.153 784.198 351.985L779.697 360.443Z" fill="#D5CBFB"/>
<path d="M778.613 362.405L763.34 353.933L719.209 437.081L734.482 445.553L778.613 362.405Z" fill="#2525AD"/>
<path d="M773.703 359.69L768.25 356.665L724.118 439.813L729.572 442.838L773.703 359.69Z" fill="#1C1C84"/>
<path d="M782.413 359.674L763.504 349.185L761.517 352.928L780.426 363.417L782.413 359.674Z" fill="#F0C64B"/>
<path d="M734.513 445.591L719.233 437.118L717.674 451.28L723.734 454.645L734.513 445.591Z" fill="#D5CBFB"/>
<path d="M723.734 454.645L717.675 451.28L716.669 460.572L723.734 454.645Z" fill="#2525AD"/>
<path d="M267.672 234.042L283.301 250.035" stroke="#7B70EE" stroke-width="2.1457" stroke-miterlimit="10"/>
<path d="M283.607 234.042L267.978 250.035" stroke="#7B70EE" stroke-width="2.1457" stroke-miterlimit="10"/>
<path d="M223.551 417.756L237.389 431.918" stroke="#2525AD" stroke-width="1.9001" stroke-miterlimit="10"/>
<path d="M237.68 417.756L223.828 431.918" stroke="#2525AD" stroke-width="1.9001" stroke-miterlimit="10"/>
<path d="M216.21 300.428C216.21 306.816 211.14 311.998 204.892 311.998C198.643 311.998 193.574 306.816 193.574 300.428C193.574 294.039 198.643 288.857 204.892 288.857C211.14 288.857 216.21 294.039 216.21 300.428Z" stroke="#7B70EE" stroke-width="2.1457" stroke-miterlimit="10"/>
<path d="M659.005 291.523C665.256 291.523 670.323 286.342 670.323 279.952C670.323 273.562 665.256 268.381 659.005 268.381C652.755 268.381 647.688 273.562 647.688 279.952C647.688 286.342 652.755 291.523 659.005 291.523Z" stroke="#7B70EE" stroke-width="2.1457" stroke-miterlimit="10"/>
<path d="M710.628 263.825C710.628 265.448 709.346 266.758 707.758 266.758C706.17 266.758 704.889 265.448 704.889 263.825C704.889 262.202 706.17 260.891 707.758 260.891C709.346 260.876 710.628 262.202 710.628 263.825Z" stroke="#2525AD" stroke-width="1.9001" stroke-miterlimit="10"/>
<path d="M433.362 165.81C433.362 167.433 432.08 168.744 430.492 168.744C428.904 168.744 427.623 167.433 427.623 165.81C427.623 164.187 428.904 162.877 430.492 162.877C432.08 162.877 433.362 164.187 433.362 165.81Z" stroke="#2525AD" stroke-width="1.9001" stroke-miterlimit="10"/>
<path d="M249.901 538.837V545.792C240.768 546.313 233.485 554.056 233.485 563.527V569.439C233.485 579.148 241.132 587.041 250.571 587.219C254.009 606.25 270.308 620.68 289.914 620.68C312.025 620.68 329.942 602.364 329.942 579.759V538.837H249.901ZM239.107 569.439V563.527C239.107 557.228 243.871 552.046 249.901 551.54V579.759C249.901 580.325 249.915 580.876 249.945 581.441C243.885 580.935 239.107 575.753 239.107 569.439Z" fill="#2525AD"/>
<path d="M310.016 492.257C304.917 489.577 298.232 490.843 294.138 494.938C293.41 488.966 287.86 484.454 282.034 483.561C276.208 482.667 270.308 484.752 265.196 487.745C260.185 490.679 255.509 494.744 253.412 500.239C251.314 505.734 252.494 512.822 257.242 516.173C259.18 517.528 261.641 517.915 263.943 517.513C264.249 519.389 264.977 521.161 266.157 522.651C270.119 527.58 278.305 528.071 282.806 523.648C286.214 526.731 291.458 527.52 295.595 525.554C296.498 525.123 297.328 524.572 298.086 523.916C297.78 528.011 296.265 532.017 293.701 535.189C298.669 533.417 302.907 529.635 305.296 524.854C306.855 521.712 307.598 518.168 307.496 514.639C311.356 513.88 314.91 510.991 316.162 507.119C317.983 501.565 315.099 494.938 310.016 492.257Z" fill="#D5CBFB"/>
<path d="M507.474 376.809C507.255 376.794 507.037 376.779 506.833 376.779C502.58 376.779 499.113 380.323 499.113 384.672C499.113 389.02 502.58 392.564 506.833 392.564C507.051 392.564 507.27 392.549 507.459 392.534C511.436 392.207 514.553 388.737 514.553 384.672C514.538 380.606 511.436 377.152 507.474 376.809Z" fill="#4E3D5F"/>
<path d="M534.538 384.687C534.538 383.317 534.013 382.036 533.067 381.068C532.12 380.1 530.867 379.564 529.527 379.564H526.672L526.381 378.581C526.002 377.286 525.492 376.035 524.866 374.844L524.385 373.935L526.41 371.865C528.362 369.87 528.362 366.638 526.41 364.643C525.463 363.675 524.21 363.154 522.87 363.154C521.53 363.154 520.277 363.69 519.331 364.643L517.306 366.713L516.417 366.221C515.252 365.581 514.029 365.06 512.761 364.673L511.8 364.375V361.456C511.8 359.029 510.11 356.929 507.794 356.453C507.474 356.378 507.139 356.349 506.804 356.349C505.464 356.349 504.211 356.885 503.264 357.853C502.317 358.82 501.793 360.101 501.793 361.471V364.39L500.832 364.688C499.564 365.075 498.341 365.596 497.176 366.236L496.287 366.728L494.262 364.658C492.311 362.662 489.15 362.662 487.198 364.658C486.251 365.626 485.741 366.906 485.741 368.276C485.741 369.646 486.266 370.927 487.198 371.895L489.222 373.965L488.742 374.873C488.115 376.065 487.606 377.315 487.227 378.611L486.936 379.594H484.081C481.328 379.594 479.084 381.887 479.084 384.702C479.084 386.072 479.609 387.352 480.556 388.32C481.502 389.288 482.755 389.824 484.095 389.824H486.95L487.241 390.807C487.62 392.103 488.13 393.353 488.756 394.545L489.237 395.453L487.212 397.523C485.261 399.518 485.261 402.75 487.212 404.745C488.159 405.713 489.412 406.234 490.752 406.234C492.092 406.234 493.345 405.698 494.292 404.745L496.316 402.675L497.205 403.167C498.37 403.807 499.594 404.328 500.861 404.715L501.822 405.013V407.932C501.822 410.746 504.065 413.04 506.818 413.04C507.139 413.04 507.474 413.01 507.794 412.95L507.94 412.921C508.858 412.712 509.688 412.236 510.343 411.551C511.29 410.583 511.815 409.302 511.815 407.932V405.013L512.776 404.715C514.043 404.328 515.267 403.807 516.432 403.167L517.321 402.675L519.345 404.745C520.292 405.713 521.545 406.234 522.885 406.234C524.225 406.234 525.478 405.698 526.424 404.745C527.371 403.777 527.881 402.497 527.881 401.127C527.881 399.757 527.357 398.476 526.424 397.508L524.4 395.438L524.88 394.53C525.507 393.339 526.017 392.088 526.395 390.792L526.687 389.809H529.542C532.295 389.794 534.538 387.501 534.538 384.687ZM517.16 394.455C514.757 397.106 511.509 398.729 507.984 399.027C507.605 399.057 507.212 399.072 506.818 399.072C499.055 399.072 492.733 392.609 492.733 384.672C492.733 376.735 499.055 370.272 506.818 370.272C507.212 370.272 507.62 370.287 507.998 370.317C511.494 370.614 514.757 372.238 517.16 374.888C519.578 377.554 520.904 381.023 520.904 384.672C520.904 388.32 519.578 391.79 517.16 394.455Z" fill="#4E3D5F"/>
<path d="M555.181 413.215C554.365 412.902 553.476 412.917 552.69 413.275C551.889 413.632 551.277 414.287 550.971 415.121L550.301 416.908L549.645 416.864C548.786 416.804 547.927 416.819 547.067 416.923L546.412 417.012L545.654 415.27C544.926 413.587 542.989 412.828 541.343 413.573C540.542 413.93 539.93 414.585 539.624 415.419C539.318 416.253 539.333 417.161 539.682 417.966L540.44 419.708L539.944 420.155C539.289 420.735 538.692 421.376 538.167 422.061L537.759 422.597L536.012 421.912C534.569 421.346 532.923 421.897 532.093 423.237C531.977 423.431 531.875 423.624 531.802 423.833C531.496 424.667 531.511 425.575 531.86 426.379C532.21 427.198 532.851 427.824 533.666 428.136L535.414 428.821L535.371 429.491C535.312 430.37 535.327 431.249 535.443 432.127L535.531 432.797L533.827 433.572C532.181 434.316 531.438 436.297 532.166 437.979C532.516 438.798 533.157 439.424 533.972 439.737C534.788 440.049 535.676 440.034 536.463 439.677L538.167 438.903L538.604 439.409C539.172 440.079 539.799 440.69 540.469 441.226L540.993 441.643L540.323 443.43C539.682 445.142 540.512 447.078 542.202 447.748C543.018 448.061 543.906 448.046 544.693 447.689C545.494 447.331 546.106 446.676 546.412 445.842L547.082 444.055L547.737 444.1C548.597 444.159 549.456 444.144 550.315 444.025L550.971 443.936L551.728 445.678C552.457 447.361 554.394 448.12 556.04 447.376C556.841 447.018 557.453 446.363 557.759 445.529C558.065 444.695 558.05 443.787 557.701 442.983L556.943 441.241L557.438 440.794C558.094 440.213 558.691 439.573 559.215 438.888L559.623 438.352L561.371 439.037C563.046 439.692 564.94 438.843 565.595 437.116C565.668 436.907 565.726 436.699 565.77 436.49L565.785 436.386C565.872 435.776 565.785 435.135 565.537 434.569C565.188 433.75 564.547 433.125 563.731 432.812L561.983 432.127L562.027 431.457C562.085 430.578 562.07 429.7 561.968 428.821L561.881 428.151L563.585 427.377C564.386 427.019 564.984 426.364 565.304 425.53C565.624 424.696 565.595 423.788 565.246 422.984C564.896 422.165 564.255 421.539 563.44 421.227C562.624 420.914 561.735 420.929 560.949 421.286L559.245 422.061L558.808 421.554C558.239 420.884 557.613 420.274 556.943 419.738L556.419 419.321L557.089 417.534C557.686 415.821 556.856 413.885 555.181 413.215ZM556.929 426.334C557.948 428.449 558.152 430.861 557.497 433.125C557.424 433.363 557.351 433.616 557.249 433.869C555.428 438.709 550.097 441.122 545.363 439.26C540.629 437.399 538.269 431.948 540.09 427.109C540.177 426.856 540.294 426.617 540.396 426.379C541.386 424.265 543.12 422.626 545.261 421.748C547.417 420.869 549.791 420.854 551.961 421.703C554.146 422.567 555.909 424.205 556.929 426.334Z" fill="#2525AD"/>
<path d="M545.445 429.85C545.387 429.984 545.329 430.118 545.271 430.252C544.266 432.903 545.577 435.896 548.169 436.908C550.762 437.936 553.69 436.596 554.68 433.945C554.739 433.811 554.782 433.677 554.812 433.543C555.54 430.982 554.214 428.242 551.782 427.274C549.364 426.321 546.567 427.452 545.445 429.85Z" fill="#2525AD"/>
</g>
</g>
<defs>
<linearGradient id="paint0_linear_537_8539" x1="504" y1="-17" x2="518.413" y2="1243.74" gradientUnits="userSpaceOnUse">
<stop stop-color="#4A68A3"/>
<stop offset="1" stop-color="#42868F" stop-opacity="0"/>
</linearGradient>
<clipPath id="clip0_537_8539">
<rect width="876" height="793" fill="white"/>
</clipPath>
<clipPath id="clip1_537_8539">
<rect width="630" height="522" fill="white" transform="translate(189 135)"/>
</clipPath>
</defs>
</svg>
