<svg width="266" height="187" viewBox="0 0 266 187" fill="none" xmlns="http://www.w3.org/2000/svg">
<path d="M135.884 0L0 22.3852L130.662 90.6172L265.973 69.5991L135.884 0Z" fill="black"/>
<path d="M0 22.3852V25.6319L130.76 96.9568L265.973 72.7091V69.5991L130.662 90.6172L0 22.3852Z" fill="#2D2D2D"/>
<path d="M50.5492 99.1441L48.4703 113.566C48.4703 113.566 104.258 160.336 182.946 137.336L184.158 126.075C114.603 138.224 70.8147 114.694 50.5492 99.1441Z" fill="#2D2D2D"/>
<path d="M216.209 175.083C208.925 169.051 203.768 160.165 201.313 150.801C201.133 150.1 200.249 150.357 200.134 150.955C199.971 150.733 199.643 150.698 199.365 150.835C199.234 150.357 198.481 150.134 198.203 150.715C193.21 160.814 197.073 172.229 200.413 182.226C200.674 183.012 201.509 182.584 201.247 181.798C198.628 173.972 195.829 165.223 197.417 156.97C196.533 167.393 199.856 178.056 205.945 186.327C206.387 186.925 207.075 186.207 206.633 185.609C201.1 178.107 198.252 168.572 198.546 159.106C198.71 162.831 199.267 166.556 200.413 170.059C202.164 175.442 205.094 180.585 208.008 185.353C208.434 186.053 209.121 185.336 208.696 184.635C205.88 180.055 203.457 175.134 201.706 169.991C200.953 167.786 200.462 165.479 200.151 163.138C201.837 170.725 205.34 177.834 210.382 183.627C210.905 184.242 211.609 183.695 211.069 183.08C205.553 176.74 202.23 168.624 200.855 160.25C202.884 168.094 206.617 175.51 211.56 181.884C212.068 182.533 212.575 181.833 212.068 181.183C207.239 174.963 204.063 167.701 202.066 160.045C204.751 167.94 208.221 175.544 214.376 181.166C214.981 181.713 215.636 181.081 215.031 180.534C210.807 176.672 208.024 171.477 205.749 166.248C208.204 170.811 211.167 175.083 214.605 178.945C215.145 179.56 215.603 178.586 215.063 177.988C212.035 174.587 209.727 170.845 207.484 166.863C209.792 170.093 212.477 173.049 215.538 175.561C216.16 176.057 216.831 175.595 216.209 175.083Z" fill="#F0C64B"/>
<path d="M203.408 65.891C200.576 62.3538 196.746 60.0299 192.817 58.0306C185.009 54.0833 176.333 52.3574 167.87 50.6828C155.904 48.3246 143.676 46.1374 133.739 38.2599C133.346 37.9523 132.986 38.1061 132.757 38.4136C132.741 38.4307 132.724 38.4478 132.708 38.482C132.708 38.4991 132.692 38.4991 132.692 38.5162C132.446 38.8237 132.381 39.268 132.741 39.6269C140.025 46.9063 149.765 50.4948 159.358 53.0409C169.048 55.6041 178.936 57.3471 188.217 61.3798C188.512 61.4994 188.79 61.6361 189.085 61.7557C189.134 61.7728 189.445 61.9266 189.445 61.9266C189.92 62.1658 190.394 62.4222 190.869 62.6614C192.604 63.5671 194.29 64.4898 195.878 65.6518C197.777 67.053 199.545 68.7618 200.773 70.8465C202.115 73.1192 202.573 75.6824 202.524 78.331C202.475 81.0822 201.984 83.8333 201.558 86.5332C201.116 89.3356 200.707 92.1552 200.298 94.9747C199.447 100.802 198.645 106.612 198.039 112.473C196.713 125.357 196.353 138.498 198.579 151.314C198.743 152.27 200.265 152.048 200.2 151.091C199.332 138.942 200.282 126.758 201.919 114.711C202.737 108.713 203.719 102.75 204.718 96.786C205.667 91.1811 206.911 85.5421 207.337 79.886C207.746 74.7255 206.617 69.8725 203.408 65.891Z" fill="#F0C64B"/>
<path d="M197.957 152.236C198.104 152.168 198.235 152.1 198.383 152.031C198.465 151.997 198.465 151.997 198.366 152.031C198.415 152.014 198.448 151.997 198.497 151.98C198.563 151.963 198.628 151.929 198.694 151.912C199.005 151.809 199.316 151.741 199.643 151.689C199.725 151.672 199.79 151.655 199.872 151.655C199.659 151.672 199.905 151.655 199.954 151.655C200.118 151.638 200.265 151.638 200.429 151.638C200.593 151.638 200.74 151.655 200.904 151.672C200.985 151.672 201.051 151.689 201.133 151.707C201.182 151.707 201.215 151.724 201.264 151.724C201.149 151.707 201.149 151.707 201.247 151.724C201.477 151.775 201.673 151.775 201.886 151.655C202.066 151.553 202.23 151.365 202.279 151.16C202.377 150.75 202.197 150.169 201.738 150.083C200.183 149.776 198.612 149.964 197.188 150.698C196.795 150.903 196.631 151.467 196.844 151.86C197.073 152.288 197.548 152.441 197.957 152.236Z" fill="#D8A32B"/>
<path d="M197.793 150.545C197.941 150.476 198.072 150.408 198.219 150.34C198.301 150.305 198.301 150.305 198.203 150.34C198.252 150.322 198.285 150.305 198.334 150.288C198.399 150.271 198.465 150.237 198.53 150.22C198.841 150.117 199.152 150.049 199.479 149.998C199.561 149.981 199.627 149.964 199.709 149.964C199.496 149.981 199.741 149.964 199.79 149.964C199.954 149.947 200.102 149.947 200.265 149.947C200.429 149.947 200.576 149.964 200.74 149.981C200.822 149.981 200.887 149.998 200.969 150.015C201.018 150.015 201.051 150.032 201.1 150.032C200.985 150.015 200.985 150.015 201.084 150.032C201.313 150.083 201.509 150.083 201.722 149.964C201.902 149.861 202.066 149.673 202.115 149.468C202.213 149.058 202.033 148.477 201.575 148.392C200.02 148.084 198.448 148.272 197.024 149.007C196.631 149.212 196.467 149.776 196.68 150.169C196.909 150.613 197.384 150.767 197.793 150.545Z" fill="#D8A32B"/>
<path d="M188.217 92.1381L188.905 86.5332L130.76 96.9569L57.5554 57.0224L55.9839 66.4549L129.287 104.971L188.217 92.1381Z" fill="#3E3E3E"/>
<path d="M129.287 104.971L55.9839 66.4378L50.5492 99.127C70.8311 114.66 114.603 138.19 184.141 126.058L188.217 92.121L129.287 104.971Z" fill="black"/>
</svg>
